<?xml version="1.0" encoding="UTF-8"?>
<!DOCTYPE svg PUBLIC "-//W3C//DTD SVG 1.1//EN" "http://www.w3.org/Graphics/SVG/1.1/DTD/svg11.dtd">
<svg xmlns="http://www.w3.org/2000/svg" version="1.1" width="82px" height="81px" style="shape-rendering:geometricPrecision; text-rendering:geometricPrecision; image-rendering:optimizeQuality; fill-rule:evenodd; clip-rule:evenodd" xmlns:xlink="http://www.w3.org/1999/xlink">
<g><path style="opacity:0.957" fill="#f2f2f2" d="M 45.5,40.5 C 43.6064,41.0476 41.9397,42.0476 40.5,43.5C 36.5404,39.0382 31.8737,35.5382 26.5,33C 29.8791,22.982 36.5458,19.3154 46.5,22C 50.6678,24.1643 53.3345,27.4976 54.5,32C 53.3181,33.7351 51.6515,34.7351 49.5,35C 47.5359,36.451 46.2026,38.2843 45.5,40.5 Z"/></g>
<g><path style="opacity:0.959" fill="#f3f2f2" d="M 23.5,34.5 C 30.2342,35.7118 35.5675,39.2118 39.5,45C 35.2294,49.6113 30.7294,53.778 26,57.5C 15.5166,55.0951 12.1833,49.0951 16,39.5C 18.1699,37.1769 20.6699,35.5103 23.5,34.5 Z"/></g>
<g><path style="opacity:0.957" fill="#f9f9f9" d="M 45.5,40.5 C 49.0906,38.1206 52.9239,36.1206 57,34.5C 66.7637,37.36 69.4304,43.36 65,52.5C 63.2691,54.6166 61.1024,56.1166 58.5,57C 49.1667,57.6667 39.8333,57.6667 30.5,57C 36.0982,51.9086 41.0982,46.4086 45.5,40.5 Z"/></g>
</svg>
