<?xml version="1.0" encoding="UTF-8"?>
<!DOCTYPE svg PUBLIC "-//W3C//DTD SVG 1.1//EN" "http://www.w3.org/Graphics/SVG/1.1/DTD/svg11.dtd">
<svg xmlns="http://www.w3.org/2000/svg" version="1.1" width="82px" height="81px" style="shape-rendering:geometricPrecision; text-rendering:geometricPrecision; image-rendering:optimizeQuality; fill-rule:evenodd; clip-rule:evenodd" xmlns:xlink="http://www.w3.org/1999/xlink">
<g><path style="opacity:0.982" fill="#fefefe" d="M 35.5,5.5 C 57.2183,4.39831 70.3849,14.3983 75,35.5C 76.1059,56.7262 66.2726,69.5596 45.5,74C 25.5863,75.4155 12.753,66.5822 7,47.5C 4.48845,25.2017 13.9885,11.2017 35.5,5.5 Z M 36.5,21.5 C 45.7417,20.2393 51.7417,24.0726 54.5,33C 49.1643,35.3252 44.6643,38.8252 41,43.5C 37.0674,38.8929 32.5674,35.0596 27.5,32C 28.9442,27.0633 31.9442,23.5633 36.5,21.5 Z M 21.5,35.5 C 24.6492,35.2114 27.6492,35.7114 30.5,37C 33.3497,39.6824 36.0164,42.5157 38.5,45.5C 34.8333,49.8333 30.8333,53.8333 26.5,57.5C 15.7688,54.7059 12.6022,48.3725 17,38.5C 18.6516,37.6006 20.1516,36.6006 21.5,35.5 Z M 53.5,35.5 C 61.4041,34.442 66.0707,37.7754 67.5,45.5C 66.6562,52.0136 62.9895,55.8469 56.5,57C 47.8333,57.6667 39.1667,57.6667 30.5,57C 37.7612,49.2334 45.4278,42.0667 53.5,35.5 Z"/></g>
</svg>
