<?xml version="1.0" encoding="UTF-8"?>
<!DOCTYPE svg PUBLIC "-//W3C//DTD SVG 1.1//EN" "http://www.w3.org/Graphics/SVG/1.1/DTD/svg11.dtd">
<svg xmlns="http://www.w3.org/2000/svg" version="1.1" width="330px" height="150px" style="shape-rendering:geometricPrecision; text-rendering:geometricPrecision; image-rendering:optimizeQuality; fill-rule:evenodd; clip-rule:evenodd" xmlns:xlink="http://www.w3.org/1999/xlink">
<g><path style="opacity:0.982" fill="#fefefe" d="M 52.5,36.5 C 74.2183,35.3983 87.3849,45.3983 92,66.5C 93.1059,87.7262 83.2726,100.56 62.5,105C 42.5863,106.416 29.753,97.5822 24,78.5C 21.4885,56.2017 30.9885,42.2017 52.5,36.5 Z M 53.5,52.5 C 62.7417,51.2393 68.7417,55.0726 71.5,64C 66.1643,66.3252 61.6643,69.8252 58,74.5C 54.0674,69.8929 49.5674,66.0596 44.5,63C 45.9442,58.0633 48.9442,54.5633 53.5,52.5 Z M 38.5,66.5 C 41.6492,66.2114 44.6492,66.7114 47.5,68C 50.3497,70.6824 53.0164,73.5157 55.5,76.5C 51.8333,80.8333 47.8333,84.8333 43.5,88.5C 32.7688,85.7059 29.6022,79.3725 34,69.5C 35.6516,68.6006 37.1516,67.6006 38.5,66.5 Z M 70.5,66.5 C 78.4041,65.442 83.0707,68.7754 84.5,76.5C 83.6562,83.0136 79.9895,86.8469 73.5,88C 64.8333,88.6667 56.1667,88.6667 47.5,88C 54.7612,80.2334 62.4278,73.0667 70.5,66.5 Z"/></g>
<g><path style="opacity:0.973" fill="#fdfefe" d="M 122.5,36.5 C 180.833,36.5 239.167,36.5 297.5,36.5C 297.5,37.8333 297.5,39.1667 297.5,40.5C 239.167,40.5 180.833,40.5 122.5,40.5C 122.5,39.1667 122.5,37.8333 122.5,36.5 Z"/></g>
<g><path style="opacity:0.945" fill="#fefefe" d="M 289.5,57.5 C 291.167,57.5 292.833,57.5 294.5,57.5C 294.5,59.8333 294.5,62.1667 294.5,64.5C 295.833,64.5 297.167,64.5 298.5,64.5C 298.5,66.1667 298.5,67.8333 298.5,69.5C 297.167,69.5 295.833,69.5 294.5,69.5C 294.5,73.8333 294.5,78.1667 294.5,82.5C 292.5,82.5 290.5,82.5 288.5,82.5C 288.5,78.1667 288.5,73.8333 288.5,69.5C 287.167,69.5 285.833,69.5 284.5,69.5C 284.5,67.8333 284.5,66.1667 284.5,64.5C 285.833,64.5 287.167,64.5 288.5,64.5C 288.298,62.0504 288.631,59.717 289.5,57.5 Z"/></g>
<g><path style="opacity:0.957" fill="#fefefe" d="M 131.5,63.5 C 140.963,64.444 144.463,69.444 142,78.5C 138.649,83.2103 134.316,84.5437 129,82.5C 128.503,84.8098 128.337,87.1432 128.5,89.5C 126.5,89.5 124.5,89.5 122.5,89.5C 122.5,81.1667 122.5,72.8333 122.5,64.5C 125.713,64.81 128.713,64.4767 131.5,63.5 Z M 131.5,68.5 C 134.468,68.6261 136.468,70.1261 137.5,73C 134.475,78.989 131.475,78.989 128.5,73C 129.315,71.3566 130.315,69.8566 131.5,68.5 Z"/></g>
<g><path style="opacity:0.96" fill="#fefefe" d="M 150.5,63.5 C 158.742,62.1134 163.742,65.4468 165.5,73.5C 164.444,79.389 160.944,82.7223 155,83.5C 145.557,80.9503 142.891,75.2836 147,66.5C 148.518,65.8366 149.685,64.8366 150.5,63.5 Z M 154.5,68.5 C 161.083,71.5646 161.083,74.5646 154.5,77.5C 149.198,74.567 149.198,71.567 154.5,68.5 Z"/></g>
<g><path style="opacity:0.957" fill="#fefefe" d="M 175.5,63.5 C 184.963,64.444 188.463,69.444 186,78.5C 182.649,83.2103 178.316,84.5437 173,82.5C 172.503,84.8098 172.337,87.1432 172.5,89.5C 170.5,89.5 168.5,89.5 166.5,89.5C 166.5,81.1667 166.5,72.8333 166.5,64.5C 169.713,64.81 172.713,64.4767 175.5,63.5 Z M 175.5,68.5 C 178.468,68.6261 180.468,70.1261 181.5,73C 178.475,78.989 175.475,78.989 172.5,73C 173.315,71.3566 174.315,69.8566 175.5,68.5 Z"/></g>
<g><path style="opacity:0.963" fill="#fefefe" d="M 196.5,63.5 C 198.833,63.5 201.167,63.5 203.5,63.5C 203.5,65.5 203.5,67.5 203.5,69.5C 201.473,69.3379 199.473,69.5045 197.5,70C 195.302,71.67 194.968,73.67 196.5,76C 198.677,77.2022 201.011,77.7022 203.5,77.5C 203.5,79.1667 203.5,80.8333 203.5,82.5C 193.508,83.6729 189.008,79.3396 190,69.5C 191.494,66.6865 193.66,64.6865 196.5,63.5 Z"/></g>
<g><path style="opacity:0.96" fill="#fefefe" d="M 210.5,63.5 C 218.742,62.1134 223.742,65.4468 225.5,73.5C 224.444,79.389 220.944,82.7223 215,83.5C 205.557,80.9503 202.891,75.2836 207,66.5C 208.518,65.8366 209.685,64.8366 210.5,63.5 Z M 214.5,68.5 C 221.083,71.5646 221.083,74.5646 214.5,77.5C 209.198,74.567 209.198,71.567 214.5,68.5 Z"/></g>
<g><path style="opacity:0.941" fill="#fefefe" d="M 226.5,63.5 C 230.601,64.3659 234.601,64.3659 238.5,63.5C 238.785,65.288 238.452,66.9547 237.5,68.5C 235.259,69.0318 233.759,70.3651 233,72.5C 232.502,75.8168 232.335,79.1501 232.5,82.5C 230.5,82.5 228.5,82.5 226.5,82.5C 226.5,76.1667 226.5,69.8333 226.5,63.5 Z"/></g>
<g><path style="opacity:0.963" fill="#fefefe" d="M 248.5,63.5 C 252.883,63.3481 256.383,65.0148 259,68.5C 260.379,73.036 260.879,77.7027 260.5,82.5C 258.5,82.5 256.5,82.5 254.5,82.5C 254.666,78.4862 254.499,74.4862 254,70.5C 251.667,67.8333 249.333,67.8333 247,70.5C 246.501,74.4862 246.334,78.4862 246.5,82.5C 244.5,82.5 242.5,82.5 240.5,82.5C 240.5,76.5 240.5,70.5 240.5,64.5C 243.385,64.8064 246.052,64.4731 248.5,63.5 Z"/></g>
<g><path style="opacity:0.969" fill="#fefefe" d="M 268.5,63.5 C 277.85,62.1895 282.517,66.1895 282.5,75.5C 278.154,75.3343 273.821,75.501 269.5,76C 271.202,77.7184 273.035,77.885 275,76.5C 280.75,80.0702 279.917,82.4036 272.5,83.5C 263.61,81.3862 260.776,76.0528 264,67.5C 265.397,65.9297 266.897,64.5964 268.5,63.5 Z M 271.5,68.5 C 273.423,68.795 275.09,69.6283 276.5,71C 274.098,71.8141 271.765,71.6474 269.5,70.5C 270.243,69.8182 270.909,69.1515 271.5,68.5 Z"/></g>
<g><path style="opacity:0.919" fill="#fefefe" d="M 122.5,100.5 C 180.833,100.5 239.167,100.5 297.5,100.5C 297.5,101.833 297.5,103.167 297.5,104.5C 239.167,104.5 180.833,104.5 122.5,104.5C 122.5,103.167 122.5,101.833 122.5,100.5 Z"/></g>
</svg>
